<svg id="Layer_1" enable-background="new 0 0 512 512" height="512" viewBox="0 0 512 512" width="512" xmlns="http://www.w3.org/2000/svg"><path d="m67.1 484.4h-48.8v-86.2c0-30.4 20.9-56.7 50.4-63.7 9.3-2.2 18.5-5 27.4-8.5l.1.3c.2 34.9 28.6 63 63.5 62.8 34.6-.2 62.6-28.2 62.8-62.8v-1c8.9 3.9 18 7 27.4 9.3 29.5 7 50.4 33.4 50.4 63.7v86.2z" fill="#a2c6f8"/><path d="m206.7 317.4-13.1-7.2-68.2 1.9-16.1 8c-4.3 2.1-8.7 4.1-13.1 5.8l.1.3c0 16.7 6.6 32.7 18.5 44.5s28.1 18.4 44.9 18.4c34.9 0 63.4-28.1 63.4-62.9v-1h-.2c-5.5-2.4-11-5-16.2-7.8z" fill="#deeafb"/><path d="m195.2 125.8h-72.4c-18.6 0-33.7 15-33.7 33.6v39.4h6.8c3 0 5.9-.1 8.9-.4 5.6-.4 11.2-1.3 16.7-2.6 4.2-1 8.4-1.7 12.7-2.2s8.6-.7 12.9-.7h24.6c8.6 0 17.2 1 25.6 2.9 6.3 1.5 12.7 2.4 19.2 2.8 2.2.1 4.3.2 6.5.2h6v-39.4c-.1-18.6-15.2-33.7-33.8-33.6z" fill="#c7e4a6"/><path d="m96.9 335c-.4-2.9-.6-5.8-.6-8.7l-.1-.2v-.1c-8.9 3.5-18 6.3-27.4 8.5-29.5 7-50.4 33.4-50.4 63.7v86.2h30v-86.2c0-29.6 19.9-55.5 48.5-63.2z" fill="#90b4e0"/><path d="m125.4 312.1-16.1 8c-4.3 2.1-8.7 4.1-13.1 5.8v.1l.1.2c0 2.9.2 5.8.6 8.7.6-.2 1.3-.3 1.9-.5 9.3-2.2 18.5-5 27.4-8.5 4.5-1.8 8.8-3.7 13.1-5.8l16.1-8z" fill="#c8d7e8"/><path d="m222.5 219.6c-1-.4-2.1-.6-3.3-.6h-3.2v-20.1l.2-.3c-6.4-.4-12.8-1.3-19-2.7-8.4-1.9-16.9-2.9-25.5-2.9h-24.6c-4.3 0-8.6.2-12.9.7s-8.5 1.2-12.7 2.2c-5.5 1.3-11 2.1-16.6 2.6l.1.4v19.3c-.7.5-1.6.8-2.5.8h-1.4c-1.1 0-2.2.2-3.3.6-4.3 1.4-7.2 5.4-7.2 10 0 2.8 1.1 5.4 3.1 7.4s4.6 3.1 7.4 3.1h2.8l4.4 28c1.5 9.5 5.6 18.5 11.9 25.8h.1 79.8.1c6.3-7.3 10.4-16.2 11.9-25.8l4.4-28h2.8c5.8 0 10.5-4.6 10.5-10.4 0-4.6-3-8.7-7.3-10.1z" fill="#f1dbcd"/><path d="m125.3 304-.3 27.7c16.6 19.1 45.4 21.1 64.5 4.5 1.6-1.4 3.1-2.9 4.5-4.5v-28.7z" fill="#eac5ae"/><path d="m193.6 305.3c-1.6 1.2-3.5 2.1-5.5 2.6-9.8 2.5-19.9 3.8-30.1 3.7-13.4 0-20.5-1.7-29.1-4-1.2-.3-2.4-.8-3.4-1.5-1-.6-2-1.4-2.8-2.3-1.6-1.9-2.8-4.2-3.6-6.6-1.3-3.4-2.3-6.8-2.9-10.4-.5-2.8-.7-5.6-.6-8.4.1-3.8.4-10.7.8-14 .2-1.9 1-3.7 2.1-5.2 1.3-1.7 3.1-3 5.2-3.7 8.8-2.9 18-4.7 27.3-5.3 13.9-1 27.8 1 40.8 5.8 3.2 1.1 5.7 3.7 6.7 7 1.5 6 2.4 12.1 2.6 18.3.1 4.2-.2 8.3-1 12.4-.2.9-.4 1.7-.6 2.6-.7 2.9-2.2 5.5-4.3 7.5-.5.6-1 1.1-1.6 1.5z" fill="#c7e4a6"/><path d="m467.1 21h-182.2c-15.9 0-28.9 12.8-28.9 28.8v.3 74.2c7-1 75.5-1.8 83.3-2.3h73.5-.1c7.6.6 76.4 1.4 83.4 2.4v-74.4c.1-15.9-12.6-28.9-28.5-29-.2 0-.3 0-.5 0z" fill="#a2c6f8"/><path d="m412.6 121.9h-73.3c-7.8.6-76.3 1.4-83.3 2.3v31.1c0 16.1 12.8 29.6 28.9 29.6h45.1v37.7l55.5-37.7h81.6c16.1 0 28.9-13.5 28.9-29.6v-31.1c-7-.9-75.8-1.7-83.4-2.3z" fill="#d28b94"/><path d="m286 50c-.1-15.9 12.7-28.9 28.6-29h.3-30c-15.9 0-28.9 12.8-28.9 28.8v.3 74.2c2.8-.4 15.4-.7 30-1.1z" fill="#90b4e0"/><path d="m286 155.4v-32.2c-14.6.3-27.2.7-30 1.1v31.1c0 16.1 12.8 29.6 28.9 29.6h30c-16.1 0-28.9-13.5-28.9-29.6z" fill="#ad6671"/><path d="m339.1 121.9c-1.1-4.9-2.7-9.7-4.8-14.3-3.9-8.5-6.2-17.7-6.7-27.1 0-.5 0-1 0-1.4 0-12.4 10-22.4 22.4-22.4 2 0 4 .3 5.9.8l8.9 2.4c7.4 2 15.2 2 22.5 0l8.9-2.4c11.9-3.3 24.2 3.8 27.5 15.7.7 2.4.9 4.9.7 7.3-.6 9.4-2.9 18.5-6.7 27.1-2.1 4.6-3.8 9.4-5 14.3-1.4 5.6-2.2 11.4-2.2 17.2v12.6c0 2.4-.9 4.6-2.6 6.3-1.6 1.7-3.9 2.6-6.2 2.6s-4.4-.8-6.1-2.3c-4.8-4-7.5-9.9-7.6-16.1v-6.9c.1-6.7-5.3-12.2-12.1-12.3-6.7-.1-12.2 5.3-12.3 12.1v.3 6.8c0 6.2-2.7 12.1-7.4 16.1-1.7 1.5-3.9 2.3-6.1 2.3-4.9 0-8.9-4-9-8.9v-12.6c0-5.8-.7-11.5-2-17.2z" fill="#deeafb"/><path d="m366.2 127.6c-.3-1.9-.6-3.8-1.1-5.7-1.1-4.9-2.7-9.7-4.8-14.3-3.9-8.5-6.2-17.7-6.7-27.1 0-.5 0-1 0-1.4 0-8.2 4.4-15.4 10.9-19.3l-8.6-2.4c-1.9-.5-3.9-.8-5.9-.8-12.4 0-22.4 10-22.4 22.4v1.4c.6 9.4 2.9 18.5 6.7 27.1 2.1 4.6 3.7 9.4 4.8 14.3 1.3 5.6 1.9 11.4 1.9 17.2v12.6c0 4.9 4.1 8.9 9 8.9 2.3 0 4.4-.8 6.2-2.3 4.7-4 7.4-9.9 7.4-16.1v-6.8c0-.1 0-.2 0-.3 0-2.8 1-5.4 2.6-7.4z" fill="#c8d7e8"/><g fill="#284268"><path d="m251.2 328.6c-14.6-3.6-28.6-9.2-41.7-16.5l-9.1-5c2.4-2.7 4.1-5.9 4.9-9.4.1-.4.2-.8.3-1.1 6.5-7.9 10.8-17.5 12.4-27.6l3.6-23.1c9-1.3 15.2-9.6 13.9-18.5-.6-4-2.6-7.7-5.7-10.3 1.4-4.5 2.4-9.1 3.1-13.8 1.3-1.1 2.1-2.8 2.1-4.5v-39.4c0-21.8-17.9-39.3-39.8-39.3h-72.4c-21.8-.1-39.6 17.5-39.8 39.3v39.4c0 1.8.9 3.6 2.3 4.7.9 3.5 2 7 3.3 10.4l1.7 4.2c-6.4 6.4-6.4 16.8-.1 23.2 2.5 2.5 5.8 4.2 9.3 4.7l3.6 23.1c1.1 7.1 3.6 13.9 7.2 20.2.7 3.5 1.7 7 3 10.3 1 3.1 2.6 6 4.7 8.5.2.2.4.5.7.7l-12.3 6.1c-12.5 6.1-25.8 10.8-39.4 13.9-32.1 7.4-55 36.2-55 69.4v86.2c0 3.3 3 5.6 6.3 5.6h282.1c2.9.1 5.4-2.1 5.5-5 0-.2 0-.4 0-.6v-86.2c.3-33.1-22.5-62-54.7-69.6zm-45.1-61.5c-.1.5-.2 1.1-.3 1.6-.4-2.5-.9-5-1.6-7.4-.2-.7-.5-1.4-.8-2l5.8-11.8zm17.6-37.5c0 2.4-2 4.4-4.5 4.4h-2.8c-.2 0-.4 0-.7.1l4.3-8.8c2.2.4 3.7 2.2 3.7 4.3zm-121.7 4.4c-2.4 0-4.4-1.9-4.5-4.3 0-1.9 1.2-3.7 3-4.3l2.9 8.6zm-3.8-29.3h.6v1.9c-.2-.6-.4-1.2-.6-1.9zm-2.4-11.7h-.8v-33.7c.1-15.2 12.5-27.4 27.7-27.3h.1 72.4c15.2-.1 27.7 12.1 27.8 27.3v33.4c-8.2 0-16.3-.9-24.3-2.7-8.9-2-17.9-3.1-27-3h-24.6c-9.1 0-18.1 1.1-27 3.2-7.9 1.8-16.1 2.8-24.3 2.8zm15.2 25.2v-14.4c4-.5 8-1.2 11.9-2.1 7.9-1.8 16-2.7 24.2-2.7h24.6c8.1 0 16.1.9 24 2.7 4.8 1.1 10.3 1.9 14.3 2.4v13.7l-15.9 32.8c-.2-.1-.2-.1-.4-.2-13.8-5.1-28.5-7.1-43.2-6.1-9.8.6-19.5 2.5-28.8 5.6-.1 0 0 0-.1.1zm75.6 83.9c-9.3 2.4-18.9 3.6-28.6 3.5-13 0-19.8-1.7-27.7-3.8-1.3-.3-2.4-1-3.2-2-1.1-1.4-1.9-3-2.4-4.7-2.1-5.2-3.2-10.8-3.1-16.4.2-6.3.5-11.3.8-13.5.2-1.8 1.5-3.3 3.2-3.9 8.4-2.8 17-4.5 25.8-5 2.3-.1 4.5-.2 6.6-.2 10.9 0 21.6 1.9 31.8 5.6 1.4.5 2.5 1.6 3 3.1 1.4 5.5 2.2 11.1 2.4 16.7.1 4.5-.4 9-1.4 13.4-.4 1.8-1.3 3.4-2.6 4.6-1.4 1.3-2.9 2.2-4.6 2.6zm1.4 12.1v15.3c-8 7.7-17.8 12-28.5 12s-20.5-4.4-28.5-12v-15c8.8 2.4 17.9 3.5 27 3.5h.1c10.1-.1 20.1-1.4 29.9-3.8zm-69 7.8v9.8c.1 1.5.6 3 1.6 4.1 9.7 11.4 23.8 18 38.7 18.1 15-.1 29.2-6.7 38.9-18.1 1-1.2 1.6-2.6 1.7-4.1v-11.8l16.6 8.9c-1.6 30.4-26.7 54.2-57.1 54.2-30.3 0-55.2-23.4-57.2-53.1zm175 156h-36v-34.4c0-3.3-2.7-6-6-6s-6 2.7-6 6v34.4h-173v-34.4c0-3.3-2.7-6-6-6s-6 2.7-6 6v34.4h-37v-79.8c0-27.6 19.1-51.6 46-57.9 7.3-1.7 14.2-3.7 20.7-6 4.7 37.9 39.2 64.9 77.1 60.3 31.7-3.9 56.6-29 60.3-60.7 6.6 2.6 13.4 4.7 20.3 6.4 26.8 6.3 45.7 30.3 45.6 57.9z"/><path d="m467.2 15h-182.3c-19.3 0-34.9 15.6-34.9 34.9v.2 105.3c0 19.4 15.5 35.6 34.9 35.6h39.1v31.7c.1 2.3 1.4 4.3 3.4 5.3.9.5 1.9.7 2.9.7 1.2.1 2.4-.2 3.5-.8l53.6-36.9h79.8c19.4 0 34.8-16.2 34.8-35.6v-105.4c.1-19.2-15.4-34.9-34.6-35-.1 0-.2 0-.2 0zm22.8 102.9c-8-.4-24.3-.7-44.1-1.1-9.7-.2-19-.4-25.3-.6.7-2 1.6-4.1 2.5-6.2l.1-.3c4.1-9.1 6.5-18.9 7.1-28.9 1-15.6-10.9-29.1-26.5-30.2-3.1-.2-6.3.1-9.3.9l-8.9 2.4c-6.3 1.7-13 1.7-19.4 0l-8.9-2.4c-15.1-4.1-30.7 4.8-34.9 19.9-.8 3-1.1 6.2-.9 9.3.6 9.9 3 19.7 7.1 28.7.1.1.1.3.2.4.9 2 1.7 4.1 2.4 6.2-2.4.1-5.3.1-8.4.2-3.3.1-5.9 2.8-5.9 6.1.1 3.3 2.8 5.9 6.1 5.9 4.4-.1 8.2-.2 11.1-.3.5 3.6.8 7.3.7 11v12.6c0 8.3 6.8 14.9 15 14.9 3.8 0 7.4-1.3 10.3-3.8 6.1-5.1 9.6-12.7 9.7-20.6v-6.8c0-3.5 2.3-6.3 5.8-6.3 1.6 0 3.2.6 4.4 1.8s1.9 2.8 1.9 4.5v6.9c.1 8 3.6 15.5 9.7 20.6 6 5.4 15.2 4.9 20.6-1 2.5-2.8 3.9-6.4 3.8-10.1v-12.6c.1-3.7.5-7.4 1.2-11 6.2.2 16.7.4 28.4.6 15.2.3 35.4.7 44.4 1.1v25.5c0 12.8-10.1 23.6-22.8 23.6h-81.6c-1.3-.1-2.5.2-3.6.8l-46 31.7v-26.7c0-3.1-2.5-5.5-5.5-5.5h-45.6c-12.8 0-22.9-10.9-22.9-23.6v-25.5c4.4-.2 11.4-.4 19.1-.6 3.3-.1 5.9-2.7 5.9-6 0-3.3-2.7-6-6-6h-.1c-8.1.2-14.6.4-18.9.6v-68c-.1-12.6 10.1-22.9 22.7-23h.2 182.3c12.6 0 22.8 10.2 22.8 22.8v.2zm-101.4 4.4c-3.4-3.4-8-5.3-12.8-5.3-10 0-17.7 8.2-17.7 18.3v6.8c-.1 4.5-2.1 8.7-5.5 11.6-.7.6-1.5.9-2.4.9-1.6 0-3-1.3-3.1-2.9v-12.6c0-11.5-2.3-23-7-33.5-.1-.2-.1-.3-.2-.5-3.6-7.9-5.7-16.3-6.2-24.9-.6-9 6.3-16.8 15.3-17.4 1.8-.1 3.6.1 5.4.5l8.9 2.4c8.4 2.3 17.3 2.3 25.7 0l8.9-2.4c8.7-2.4 17.7 2.8 20.1 11.5.5 1.8.7 3.6.5 5.4-.5 8.5-2.6 16.9-6.1 24.7-.1.1-.8 1.7-.8 1.8-5.1 11.4-7.5 21.3-7.5 32.5v12.6c.1 1.4-.9 2.7-2.4 2.9-.1 0-.1 0-.2 0-.8 0-1.5-.3-2.1-.9-3.4-2.9-5.4-7.1-5.4-11.6v-6.9c0-4.9-1.9-9.6-5.4-13z"/><g><path d="m44 390.9c-3.3 0-6 2.7-6 6v5.3c0 3.3 2.7 6 6 6s6-2.7 6-6v-5.3c0-3.3-2.7-6-6-6z"/><path d="m44 412.2c-3.3 0-6 2.7-6 6v47c0 3.3 2.7 6 6 6s6-2.7 6-6v-47c0-3.3-2.7-6-6-6z"/></g></g></svg>