<svg id="Layer_1" height="512" viewBox="0 0 512 512" width="512" xmlns="http://www.w3.org/2000/svg" data-name="Layer 1"><path d="m394.68 54.27h53.81v440.73h-53.81z" fill="#ffeea4"/><path d="m394.68 54.27v440.73h-53.81v-1.43-439.3z" fill="#b6d7ff"/><path d="m287.55 161.2a81.261 81.261 0 0 1 -52.83 19.39c-1.65 0-3.191-.05-4.81-.15l.311.1-.221 314.46h56.4l1.16-333.79z" fill="#b6d7ff"/><path d="m340.87 493.57v1.43h-54.47l1.16-333.79-.01-.01a81.821 81.821 0 0 0 15.87-106.75l.28-.18h37.17z" fill="#ffeea4"/><path d="m303.42 54.45a81.781 81.781 0 0 0 -145.08 73.56l48.37-12.53 55.7-.02.1.01 48.42 12.63.12.04a81.977 81.977 0 0 0 -7.63-73.69z" fill="#c0d7fa"/><path d="m310.93 128.1-48.42-12.63-.1-.01-19.314.007a9.532 9.532 0 0 0 -17.141.006l-19.245.007-48.37 12.53a81.785 81.785 0 0 0 71.47 52.43c1.62.1 3.26.15 4.91.15a81.882 81.882 0 0 0 76.33-52.45z" fill="#d28b94"/><path d="m267.05 62.24a17.756 17.756 0 0 1 5.84 14.33 60.488 60.488 0 0 1 -5.31 21.4h.01a63.41 63.41 0 0 0 -5.18 17.49 53.81 53.81 0 0 0 -.52 7.43v9.94a7.1 7.1 0 0 1 -2.01 4.97 6.9 6.9 0 0 1 -4.93 2.06 7.358 7.358 0 0 1 -4.83-1.82 16.96 16.96 0 0 1 -6-12.73v-5.46a9.611 9.611 0 1 0 -19.22.05v5.41a16.827 16.827 0 0 1 -5.82 12.73 7.41 7.41 0 0 1 -4.85 1.82 7.085 7.085 0 0 1 -7.09-7.03v-9.94a62.485 62.485 0 0 0 -.43-7.41 59.017 59.017 0 0 0 -4.86-17.51h.02a60.5 60.5 0 0 1 -5.32-21.4c-.02-.37-.04-.75-.04-1.12a17.786 17.786 0 0 1 5.87-13.21 17.608 17.608 0 0 1 16.44-3.89l7.02 1.92a33.659 33.659 0 0 0 17.76 0l7.04-1.92a17.636 17.636 0 0 1 16.41 3.89z" fill="#deeafb"/><path d="m64 226h195v45h-195z" fill="#f3e08c"/><path d="m72 271h178v224h-178z" fill="#8db3e0"/><path d="m188.91 321.01v16.96h-19.16v19.17h-16.96v-19.17h-19.9v-16.96h19.9v-19.92h16.96v19.92z" fill="#d28b94"/><path d="m192.22 408.35v86.65h-10.23-52.41v-86.65z" fill="#f3e08c"/><path d="m64 226h30v45h-30z" fill="#d8c67c"/><path d="m72 271h30v224h-30z" fill="#799bbc"/><g fill="#284268"><path d="m188.911 315h-12.911v-13.906a6.3 6.3 0 0 0 -6.254-6.094h-16.953a5.908 5.908 0 0 0 -5.793 6.094v13.906h-14.109a5.912 5.912 0 0 0 -5.891 6v16.963a5.936 5.936 0 0 0 5.891 6.037h14.109v13.142a5.706 5.706 0 0 0 5.793 5.858h16.953a6.1 6.1 0 0 0 6.254-5.858v-13.142h12.911a6.1 6.1 0 0 0 6.089-6.032v-16.963a6.081 6.081 0 0 0 -6.089-6.005zm-5.911 17h-13.254a5.761 5.761 0 0 0 -5.746 5.968v13.032h-5v-13.032a6.153 6.153 0 0 0 -6.207-5.968h-13.793v-5h13.793a6.176 6.176 0 0 0 6.207-6v-14h5v14a5.784 5.784 0 0 0 5.746 6h13.254z"/><path d="m97 312.2a6 6 0 0 0 -6 6v72.266a6 6 0 0 0 12 0v-72.266a6 6 0 0 0 -6-6z"/><path d="m97 288.461a6 6 0 0 0 -6 6v4.92a6 6 0 0 0 12 0v-4.92a6 6 0 0 0 -6-6z"/><path d="m448.486 48h-142.229a87.755 87.755 0 1 0 -82.257 137.93v34.07h-160.486c-3.314 0-5.514 2.5-5.514 5.812v45.488a5.354 5.354 0 0 0 5.514 5.7h2.486v218a6.208 6.208 0 0 0 6.237 6h376.249c3.314 0 5.514-2.687 5.514-6v-440.726c0-3.314-2.2-6.274-5.514-6.274zm-289.516 50.793a75.751 75.751 0 1 1 148.2 22.124l-37.814-9.858a61.357 61.357 0 0 1 3.7-10.622c.036-.082.071-.164.1-.246a67.066 67.066 0 0 0 5.719-23.246 23.623 23.623 0 0 0 -7.819-19.166 23.536 23.536 0 0 0 -22-5.217l-7.043 1.922a27.7 27.7 0 0 1 -14.591 0l-7.022-1.925a23.669 23.669 0 0 0 -29.837 24.387 67.13 67.13 0 0 0 5.665 23.112c.047.128.1.254.156.379a53.339 53.339 0 0 1 3.512 10.611l-37.66 9.752a75.57 75.57 0 0 1 -3.266-22.007zm86.473 9.8a15.359 15.359 0 0 0 -10.931-4.6h-.026a15.727 15.727 0 0 0 -15.486 15.907v5.408a10.856 10.856 0 0 1 -3.8 8.188 1.541 1.541 0 0 1 -1.018.368 1.185 1.185 0 0 1 -1.182-1.037v-9.941a66.123 66.123 0 0 0 -5.562-26.965c-.054-.152-.083-.3-.15-.451a54.914 54.914 0 0 1 -4.768-19.277 11.681 11.681 0 0 1 14.709-12.059l7.03 1.921a39.706 39.706 0 0 0 20.917 0l7.04-1.92a11.585 11.585 0 0 1 10.831 2.569 11.686 11.686 0 0 1 3.853 9.496 53.81 53.81 0 0 1 -4.692 19.088c-.048.1-.238.658-.279.765a64.055 64.055 0 0 0 -5.929 26.833v9.941a1.015 1.015 0 0 1 -1 1.037 1.487 1.487 0 0 1 -1-.37 11 11 0 0 1 -4-8.186v-5.46a15.773 15.773 0 0 0 -4.557-11.248zm-175.443 156.407v-33h183v33zm116 224h-50v-75h50zm94.422 0h-24.422v-154a6 6 0 0 0 -12 0v154h-46v-80.649a6.37 6.37 0 0 0 -6.352-6.351h-62.064a5.584 5.584 0 0 0 -5.584 5.584v81.416h-46v-212h166v16a6 6 0 0 0 12 0v-16h3.165a5.834 5.834 0 0 0 5.835-5.835v-45.353a5.812 5.812 0 0 0 -5.812-5.812h-23.188v-33.43a87.182 87.182 0 0 0 45.519-13.544zm-45.7-314.414a75.934 75.934 0 0 1 -68.122-42.54l34.4-8.924v9.7a13.138 13.138 0 0 0 13.16 13.037 13.652 13.652 0 0 0 8.854-3.287 22.88 22.88 0 0 0 7.986-17.264v-5.408a3.726 3.726 0 0 1 3.5-3.9 3.348 3.348 0 0 1 2.455 1.089 3.864 3.864 0 0 1 1.045 2.759v5.46a22.955 22.955 0 0 0 8.137 17.269 13.454 13.454 0 0 0 8.836 3.287 13.078 13.078 0 0 0 13.027-13.037v-9.75l34.773 9.08a75.912 75.912 0 0 1 -68.052 42.429zm100.278 314.414h-42.578l1.129-325.123a87.694 87.694 0 0 0 19.874-103.877h21.575zm54 0h-42v-429h42zm53 0h-41v-429h41z"/></g></svg>