<svg id="Layer_3" enable-background="new 0 0 64 64" height="512" viewBox="0 0 64 64" width="512" xmlns="http://www.w3.org/2000/svg"><g><g><path d="m4 12h56v46h-56z" fill="#b9c0c9"/></g><g><path d="m4 12h53v46h-53z" fill="#d5d9df"/></g><g><path d="m12 58v-6c0-3.314 2.686-6 6-6 3.314 0 6 2.686 6 6v6z" fill="#46484c"/></g><g><path d="m16.5 46.197c-2.586.667-4.5 3.008-4.5 5.803v6h9v-6c0-2.795-1.914-5.136-4.5-5.803z" fill="#5d6065"/></g><g><path d="m40 58v-6c0-3.314 2.686-6 6-6 3.314 0 6 2.686 6 6v6z" fill="#46484c"/></g><g><path d="m44.5 46.197c-2.586.667-4.5 3.008-4.5 5.803v6h9v-6c0-2.795-1.914-5.136-4.5-5.803z" fill="#5d6065"/></g><g><path d="m40 38h12v4h-12z" fill="#1f80aa"/></g><g><path d="m40 38h9v4h-9z" fill="#29abe2"/></g><g><path d="m12 38h12v4h-12z" fill="#1f80aa"/></g><g><path d="m12 38h9v4h-9z" fill="#29abe2"/></g><g><path d="m2 58h60v4h-60z" fill="#5d6065"/></g><g><path d="m2 58h57v4h-57z" fill="#8b9097"/></g><g><path d="m24 54h16v4h-16z" fill="#1f80aa"/></g><g><path d="m24 54h13v4h-13z" fill="#29abe2"/></g><g><path d="m4 54h8v4h-8z" fill="#1f80aa"/></g><g><path d="m4 54h5v4h-5z" fill="#29abe2"/></g><g><path d="m52 54h8v4h-8z" fill="#1f80aa"/></g><g><path d="m52 54h5v4h-5z" fill="#29abe2"/></g><g><path d="m4 22h14v12h-14z" fill="#a2dbf7"/></g><g><path d="m4 22h11v12h-11z" fill="#b5e2f9"/></g><g><path d="m18 22h14v12h-14z" fill="#a2dbf7"/></g><g><path d="m18 22h11v12h-11z" fill="#b5e2f9"/></g><g><path d="m32 22h14v12h-14z" fill="#a2dbf7"/></g><g><path d="m32 22h11v12h-11z" fill="#b5e2f9"/></g><g><path d="m46 22h14v12h-14z" fill="#a2dbf7"/></g><g><path d="m46 22h11v12h-11z" fill="#b5e2f9"/></g><g><path d="m16 2h32v16h-32z" fill="#1f80aa"/></g><g><path d="m16 2h29v16h-29z" fill="#29abe2"/></g><g><path d="m62 63h-60c-.553 0-1-.447-1-1v-4c0-.553.447-1 1-1h60c.553 0 1 .447 1 1v4c0 .553-.447 1-1 1zm-59-2h58v-2h-58z"/></g><g><path d="m61 58h-2v-45h-11v-2h12c.553 0 1 .447 1 1z"/></g><g><path d="m5 58h-2v-46c0-.553.447-1 1-1h12v2h-11z"/></g><g><path d="m48 19h-32c-.553 0-1-.447-1-1v-16c0-.553.447-1 1-1h32c.553 0 1 .447 1 1v16c0 .553-.447 1-1 1zm-31-2h30v-14h-30z"/></g><g><path d="m25 58h-2v-6c0-2.757-2.243-5-5-5s-5 2.243-5 5v6h-2v-6c0-3.859 3.141-7 7-7s7 3.141 7 7z"/></g><g><path d="m4 33h56v2h-56z"/></g><g><path d="m4 21h56v2h-56z"/></g><g><path d="m17 22h2v12h-2z"/></g><g><path d="m45 22h2v12h-2z"/></g><g><path d="m31 22h2v12h-2z"/></g><g><path d="m25 15h-5c-.553 0-1-.447-1-1v-9h2v8h4z"/></g><g><path d="m35 15h-2v-6c0-1.103-.897-2-2-2s-2 .897-2 2v6h-2v-6c0-2.206 1.794-4 4-4s4 1.794 4 4z"/></g><g><path d="m42 11h-4c-.553 0-1-.447-1-1v-4c0-.553.447-1 1-1h4c1.654 0 3 1.346 3 3s-1.346 3-3 3zm-3-2h3c.552 0 1-.448 1-1s-.448-1-1-1h-3z"/></g><g><path d="m42 15h-4c-.553 0-1-.447-1-1v-4c0-.553.447-1 1-1h4c1.654 0 3 1.346 3 3s-1.346 3-3 3zm-3-2h3c.552 0 1-.448 1-1s-.448-1-1-1h-3z"/></g><g><path d="m28 11h6v2h-6z"/></g><g><path d="m24 43h-12c-.553 0-1-.447-1-1v-4c0-.553.447-1 1-1h12c.553 0 1 .447 1 1v4c0 .553-.447 1-1 1zm-11-2h10v-2h-10z"/></g><g><path d="m53 58h-2v-6c0-2.757-2.243-5-5-5s-5 2.243-5 5v6h-2v-6c0-3.859 3.141-7 7-7s7 3.141 7 7z"/></g><g><path d="m52 43h-12c-.553 0-1-.447-1-1v-4c0-.553.447-1 1-1h12c.553 0 1 .447 1 1v4c0 .553-.447 1-1 1zm-11-2h10v-2h-10z"/></g><g><path d="m4 53h8v2h-8z"/></g><g><path d="m24 53h16v2h-16z"/></g><g><path d="m52 53h8v2h-8z"/></g></g></svg>